<?xml version="1.0"?><svg xmlns="http://www.w3.org/2000/svg" viewBox="0 0 50 50"> <path fill="#6366F1" d="M 25 1 L 23.091797 11.492188 C 22.672682 11.677918 22.301478 11.923958 21.955078 12.195312 C 21.012784 10.171871 19.348924 7.3485183 16.560547 5.2070312 A 1.0001 1.0001 0 0 0 15.90625 5.0019531 A 1.0001 1.0001 0 0 0 15.029297 5.6132812 C 15.029297 5.6132812 14 7.997883 14 10.552734 C 14 12.108952 14.627072 13.618297 15.216797 14.792969 C 15.64082 15.637581 15.863478 15.934781 16.070312 16.248047 C 15.669533 16.877383 14.951172 18.143987 14.951172 20 C 14.951172 20.875971 15.248508 21.831459 15.519531 22.71875 C 15.711095 23.345901 15.806686 23.597181 15.902344 23.867188 C 15.623064 24.25373 15.277366 24.845949 15.089844 25.71875 C 12.92155 25.295625 10.52375 25 8 25 L 6.8828125 25 L 7.8828125 34.009766 C 7.3991842 34.036269 6.9171294 34.21959 6.5683594 34.568359 C 6.1913289 34.94539 6 35.477778 6 36 L 6 40 C 6 40.522222 6.1913289 41.05461 6.5683594 41.431641 C 6.9453899 41.808671 7.4777778 42 8 42 L 8.7734375 42 L 9.1054688 45 L 10 45 C 16.610145 45 24.652344 47.9375 24.652344 47.9375 L 25 48.066406 L 25.347656 47.9375 C 25.347656 47.9375 33.389855 45 40 45 L 40.894531 45 L 41.226562 42 L 42 42 C 42.522222 42 43.05461 41.808671 43.431641 41.431641 C 43.808671 41.05461 44 40.522222 44 40 L 44 36 C 44 35.477778 43.808671 34.94539 43.431641 34.568359 C 43.08287 34.21959 42.600816 34.036269 42.117188 34.009766 L 43.117188 25 L 42 25 C 39.47625 25 37.07845 25.295625 34.910156 25.71875 C 34.722634 24.845949 34.376936 24.25373 34.097656 23.867188 C 34.193316 23.597181 34.288905 23.345901 34.480469 22.71875 C 34.751492 21.831459 35.048828 20.875971 35.048828 20 C 35.048828 18.143987 34.330511 16.877169 33.929688 16.248047 C 34.136514 15.934701 34.359193 15.637745 34.783203 14.792969 C 35.372922 13.618068 36 12.108952 36 10.552734 C 36 7.997883 34.970703 5.6132814 34.970703 5.6132812 A 1.0001 1.0001 0 0 0 34.023438 5 A 1.0001 1.0001 0 0 0 33.439453 5.2070312 C 30.821171 7.2169269 29.207636 9.8268472 28.234375 11.816406 C 27.848268 11.56306 27.388009 11.342336 26.853516 11.193359 L 25 1 z M 16.421875 7.8183594 C 18.558393 9.8883521 19.882482 12.387012 20.525391 13.916016 C 20.196759 14.565827 20 15.27168 20 16 C 20 18.370333 21.417878 19.725845 22.251953 20.664062 A 1.0001 1.0001 0 0 0 24 20 C 24 20.1335 24.0124 19.9472 24.197266 19.693359 C 24.382133 19.439515 24.689309 19.110119 25.0625 18.771484 C 25.808882 18.094214 26.824077 17.371254 27.712891 16.871094 C 28.726028 16.301275 29.315343 15.677164 29.636719 15.136719 C 29.797406 14.866496 29.891113 14.621239 29.941406 14.425781 C 29.966556 14.328051 29.979791 14.243129 29.988281 14.173828 C 29.990181 14.158368 29.990887 14.146682 29.992188 14.132812 C 29.993787 14.115602 29.997147 14.096651 29.998047 14.082031 C 29.998864 14.068821 29.9996 14.055722 30 14.044922 C 30.000154 14.040322 29.999918 14.036923 30 14.033203 A 1.0001 1.0001 0 0 0 30 14.03125 L 30 14.029297 A 1.0001 1.0001 0 0 0 30 14.013672 C 29.999999 14.013715 28.248536 13.995487 28.087891 13.992188 L 29.367188 13.720703 L 29.513672 13.783203 C 29.526776 13.752271 29.550711 13.711267 29.564453 13.679688 L 29.914062 13.605469 C 29.914062 13.605469 29.821012 13.453078 29.740234 13.324219 C 30.456428 11.809125 31.772028 9.7436833 33.597656 7.9453125 C 33.797681 8.7091473 34 9.6333823 34 10.552734 C 34 11.522517 33.517388 12.857885 32.996094 13.896484 C 32.4748 14.935084 31.958984 15.667969 31.958984 15.667969 A 1.0001 1.0001 0 0 0 31.966797 16.828125 C 31.966797 16.828125 33.048828 18.423333 33.048828 20 C 33.048828 20.262029 32.821336 21.306557 32.568359 22.134766 C 32.315383 22.962974 32.060547 23.65625 32.060547 23.65625 A 1.0001 1.0001 0 0 0 32.310547 24.722656 C 32.310547 24.722656 32.777696 25.133695 32.966797 26.138672 C 28.511132 27.225713 25.411435 28.727591 25 28.929688 C 24.588565 28.727591 21.488868 27.225713 17.033203 26.138672 C 17.222304 25.133695 17.689453 24.722656 17.689453 24.722656 A 1.0001 1.0001 0 0 0 17.939453 23.65625 C 17.939453 23.65625 17.684617 22.962974 17.431641 22.134766 C 17.178664 21.306557 16.951172 20.262029 16.951172 20 C 16.951172 18.423333 18.033203 16.826172 18.033203 16.826172 A 1.0001 1.0001 0 0 0 18.041016 15.666016 C 18.041016 15.666016 17.525182 14.932859 17.003906 13.894531 C 16.482644 12.856203 16 11.522517 16 10.552734 C 16 9.5886229 16.211035 8.5992163 16.421875 7.8183594 z M 25.443359 13 C 27.188316 13 27.703041 13.784558 27.888672 14.140625 C 27.759933 14.350654 27.478275 14.709416 26.732422 15.128906 C 25.700235 15.709746 24.603118 16.486583 23.71875 17.289062 C 23.373042 17.60276 23.096717 17.924067 22.830078 18.248047 C 22.362686 17.655851 22 17.020603 22 16 C 22 14.592667 23.277484 13 25.443359 13 z M 21.5 23 A 1.5 1.5 0 0 0 20 24.5 A 1.5 1.5 0 0 0 21.5 26 A 1.5 1.5 0 0 0 23 24.5 A 1.5 1.5 0 0 0 21.5 23 z M 28.5 23 A 1.5 1.5 0 0 0 27 24.5 A 1.5 1.5 0 0 0 28.5 26 A 1.5 1.5 0 0 0 30 24.5 A 1.5 1.5 0 0 0 28.5 23 z M 9.1289062 27.109375 C 16.447098 27.39439 22.655349 30.04646 24 30.654297 L 24 45.619141 C 21.938674 44.930417 16.471083 43.26755 10.904297 43.080078 L 10.736328 41.576172 C 11.744775 41.063838 12.500089 40.129275 12.798828 39 L 13 39 L 13 38 C 13 36.103804 11.678516 34.525601 9.9082031 34.113281 L 9.1289062 27.109375 z M 40.871094 27.109375 L 40.091797 34.113281 C 38.321484 34.525601 37 36.103804 37 38 L 37 39 L 37.201172 39 C 37.499911 40.129275 38.255225 41.063838 39.263672 41.576172 L 39.095703 43.080078 C 33.528917 43.26755 28.061326 44.930417 26 45.619141 L 26 30.654297 C 27.344651 30.04646 33.552902 27.39439 40.871094 27.109375 z M 8 36 L 9 36 C 10.190196 36 11 36.809804 11 38 C 11 39.190196 10.190196 40 9 40 L 8 40 L 8 36 z M 41 36 L 42 36 L 42 40 L 41 40 C 39.809804 40 39 39.190196 39 38 C 39 36.809804 39.809804 36 41 36 z"/></svg>